# Blender v2.79 (sub 0) OBJ File: 'Steel Sides Skinny.blend'
# www.blender.org
mtllib red_sidesteel_bridge.mtl
o RAIL_BASE_Plane.001
v -0.062500 -1.100000 2.661250
v -0.062500 -1.100000 2.598750
v 0.062500 -1.100000 2.661250
v 0.062500 -1.100000 2.598750
v -0.062500 -0.990000 2.661250
v -0.062500 -0.990000 2.598750
v 0.062500 -0.990000 2.598750
v 0.062500 -0.990000 2.661250
v -0.062500 -1.100000 -2.671250
v -0.062500 -1.100000 -2.608750
v 0.062500 -1.100000 -2.671250
v 0.062500 -1.100000 -2.608750
v -0.062500 -0.990000 -2.671250
v -0.062500 -0.990000 -2.608750
v 0.062500 -0.990000 -2.608750
v 0.062500 -0.990000 -2.671250
v -0.062500 -1.100000 0.000000
v 0.062500 -1.100000 0.000000
v -0.062500 -0.990000 0.000000
v 0.062500 -0.990000 0.000000
v -0.500000 -1.000000 -2.611250
v -0.500000 1.100000 -2.611250
v -0.500000 -1.000000 -2.548750
v -0.500000 1.100000 -2.548750
v 0.500000 -1.000000 -2.611250
v 0.500000 1.100000 -2.611250
v 0.500000 -1.000000 -2.548750
v 0.500000 1.100000 -2.548750
v -0.062500 1.100000 -2.671250
v -0.062500 1.100000 -2.608750
v 0.062500 1.100000 -2.671250
v 0.062500 1.100000 -2.608750
v -0.062500 -0.990000 -2.671250
v -0.062500 -0.990000 -2.608750
v 0.062500 -0.990000 -2.608750
v 0.062500 -0.990000 -2.671250
v -0.500000 -1.000000 2.601250
v -0.500000 1.100000 2.601250
v -0.500000 -1.000000 2.538750
v -0.500000 1.100000 2.538750
v 0.500000 -1.000000 2.601250
v 0.500000 1.100000 2.601250
v 0.500000 -1.000000 2.538750
v 0.500000 1.100000 2.538750
v -0.062500 1.100000 2.661250
v -0.062500 1.100000 2.598750
v 0.062500 1.100000 2.661250
v 0.062500 1.100000 2.598750
v -0.062500 -0.990000 2.661250
v -0.062500 -0.990000 2.598750
v 0.062500 -0.990000 2.598750
v 0.062500 -0.990000 2.661250
vt 0.877164 0.841721
vt 0.850108 0.855249
vt 0.850108 0.841721
vt 0.788420 0.469697
vt 0.815476 0.493506
vt 0.788420 0.493506
vt 0.354708 0.469697
vt 0.368236 0.493506
vt 0.354708 0.493506
vt 0.416396 0.469697
vt 0.753788 0.493506
vt 0.416396 0.493506
vt 0.402868 0.469697
vt 0.402868 0.493506
vt 0.017316 0.469697
vt 0.877164 0.504329
vt 0.546537 0.528139
vt 0.519481 0.865530
vt 0.519480 0.528139
vt 0.850108 0.855249
vt 0.877164 0.841721
vt 0.850108 0.841721
vt 0.815476 0.493506
vt 0.788420 0.469697
vt 0.788420 0.493506
vt 0.368236 0.493506
vt 0.354708 0.469697
vt 0.354708 0.493506
vt 0.416396 0.469697
vt 0.416396 0.493506
vt 0.402868 0.469697
vt 0.402868 0.493506
vt 0.546537 0.528139
vt 0.519480 0.528139
vt 0.925325 0.471861
vt 0.911797 0.017316
vt 0.911797 0.471861
vt 0.233766 0.982684
vt 0.017316 0.528139
vt 0.017316 0.982684
vt 0.911797 0.506493
vt 0.925325 0.961039
vt 0.925325 0.506493
vt 0.484848 0.982684
vt 0.268398 0.528139
vt 0.268398 0.982684
vt 0.581169 0.528139
vt 0.594697 0.744589
vt 0.594697 0.528139
vt 0.642857 0.744589
vt 0.629329 0.528139
vt 0.629329 0.744589
vt 0.416396 0.469697
vt 0.402868 0.017316
vt 0.402868 0.469697
vt 0.877164 0.469697
vt 0.850108 0.017316
vt 0.850108 0.469697
vt 0.368236 0.469697
vt 0.354708 0.017316
vt 0.354708 0.469697
vt 0.815476 0.469697
vt 0.788420 0.017316
vt 0.788420 0.469697
vt 0.691017 0.555195
vt 0.677489 0.528139
vt 0.677489 0.555195
vt 0.911797 0.017316
vt 0.925325 0.471861
vt 0.911797 0.471861
vt 0.017316 0.528139
vt 0.233766 0.982684
vt 0.017316 0.982684
vt 0.925325 0.961039
vt 0.911797 0.506493
vt 0.925325 0.506493
vt 0.268398 0.528139
vt 0.484848 0.982684
vt 0.268398 0.982684
vt 0.594697 0.744589
vt 0.581169 0.528139
vt 0.594697 0.528139
vt 0.629329 0.528139
vt 0.642857 0.744589
vt 0.629329 0.744589
vt 0.402868 0.017316
vt 0.416396 0.469697
vt 0.402868 0.469697
vt 0.850108 0.017316
vt 0.877164 0.469697
vt 0.850108 0.469697
vt 0.354708 0.017316
vt 0.368236 0.469697
vt 0.354708 0.469697
vt 0.788420 0.017316
vt 0.815476 0.469697
vt 0.788420 0.469697
vt 0.677489 0.528139
vt 0.691017 0.555195
vt 0.677489 0.555195
vt 0.877164 0.855249
vt 0.815476 0.469697
vt 0.368236 0.469697
vt 0.753788 0.469697
vt 0.017316 0.493506
vt 0.850108 0.504329
vt 0.546537 0.865530
vt 0.877164 0.855249
vt 0.815476 0.469697
vt 0.368236 0.469697
vt 0.925325 0.017316
vt 0.233766 0.528139
vt 0.911797 0.961039
vt 0.484848 0.528139
vt 0.581169 0.744589
vt 0.642857 0.528139
vt 0.416396 0.017316
vt 0.877164 0.017316
vt 0.368236 0.017316
vt 0.815476 0.017316
vt 0.691017 0.528139
vt 0.925325 0.017316
vt 0.233766 0.528139
vt 0.911797 0.961039
vt 0.484848 0.528139
vt 0.581169 0.744589
vt 0.642857 0.528139
vt 0.416396 0.017316
vt 0.877164 0.017316
vt 0.368236 0.017316
vt 0.815476 0.017316
vt 0.691017 0.528139
vn 0.0000 -1.0000 0.0000
vn 0.0000 0.0000 1.0000
vn 1.0000 0.0000 0.0000
vn -1.0000 0.0000 0.0000
vn 0.0000 1.0000 0.0000
vn 0.0000 0.0000 -1.0000
usemtl red_steel
s off
f 4/1/1 1/2/1 2/3/1
f 8/4/2 1/5/2 3/6/2
f 7/7/3 3/8/3 4/9/3
f 6/10/4 17/11/4 2/12/4
f 5/13/4 2/12/4 1/14/4
f 4/9/3 20/15/3 7/7/3
f 2/3/1 18/16/1 4/1/1
f 7/17/5 19/18/5 6/19/5
f 9/20/1 12/21/1 10/22/1
f 9/23/6 16/24/6 11/25/6
f 11/26/3 15/27/3 12/28/3
f 17/11/4 14/29/4 10/30/4
f 10/30/4 13/31/4 9/32/4
f 20/15/3 12/28/3 15/27/3
f 18/16/1 10/22/1 12/21/1
f 19/18/5 15/33/5 14/34/5
f 23/35/4 22/36/4 21/37/4
f 27/38/2 24/39/2 23/40/2
f 25/41/3 28/42/3 27/43/3
f 21/44/6 26/45/6 25/46/6
f 21/47/1 27/48/1 23/49/1
f 26/50/5 24/51/5 28/52/5
f 34/53/4 29/54/4 33/55/4
f 35/56/2 30/57/2 34/58/2
f 36/59/3 32/60/3 35/61/3
f 33/62/6 31/63/6 36/64/6
f 31/65/5 30/66/5 32/67/5
f 38/68/4 39/69/4 37/70/4
f 40/71/6 43/72/6 39/73/6
f 44/74/3 41/75/3 43/76/3
f 42/77/2 37/78/2 41/79/2
f 43/80/1 37/81/1 39/82/1
f 40/83/5 42/84/5 44/85/5
f 45/86/4 50/87/4 49/88/4
f 46/89/6 51/90/6 50/91/6
f 48/92/3 52/93/3 51/94/3
f 47/95/2 49/96/2 52/97/2
f 46/98/5 47/99/5 48/100/5
f 4/1/1 3/101/1 1/2/1
f 8/4/2 5/102/2 1/5/2
f 7/7/3 8/103/3 3/8/3
f 6/10/4 19/104/4 17/11/4
f 5/13/4 6/10/4 2/12/4
f 4/9/3 18/105/3 20/15/3
f 2/3/1 17/106/1 18/16/1
f 7/17/5 20/107/5 19/18/5
f 9/20/1 11/108/1 12/21/1
f 9/23/6 13/109/6 16/24/6
f 11/26/3 16/110/3 15/27/3
f 17/11/4 19/104/4 14/29/4
f 10/30/4 14/29/4 13/31/4
f 20/15/3 18/105/3 12/28/3
f 18/16/1 17/106/1 10/22/1
f 19/18/5 20/107/5 15/33/5
f 23/35/4 24/111/4 22/36/4
f 27/38/2 28/112/2 24/39/2
f 25/41/3 26/113/3 28/42/3
f 21/44/6 22/114/6 26/45/6
f 21/47/1 25/115/1 27/48/1
f 26/50/5 22/116/5 24/51/5
f 34/53/4 30/117/4 29/54/4
f 35/56/2 32/118/2 30/57/2
f 36/59/3 31/119/3 32/60/3
f 33/62/6 29/120/6 31/63/6
f 31/65/5 29/121/5 30/66/5
f 38/68/4 40/122/4 39/69/4
f 40/71/6 44/123/6 43/72/6
f 44/74/3 42/124/3 41/75/3
f 42/77/2 38/125/2 37/78/2
f 43/80/1 41/126/1 37/81/1
f 40/83/5 38/127/5 42/84/5
f 45/86/4 46/128/4 50/87/4
f 46/89/6 48/129/6 51/90/6
f 48/92/3 47/130/3 52/93/3
f 47/95/2 45/131/2 49/96/2
f 46/98/5 45/132/5 47/99/5
